<svg xmlns="http://www.w3.org/2000/svg" width="41" height="40" viewBox="0 0 41 40" fill="none"><path fill-rule="evenodd" clip-rule="evenodd" d="M14.9485 4.08242C16.691 4.81079 18.7056 4.27098 19.8506 2.7689C20.1778 2.33962 20.8238 2.33962 21.151 2.7689C22.2959 4.27098 24.3106 4.81079 26.0531 4.08242C26.5511 3.87425 27.1106 4.19728 27.1794 4.73265C27.4199 6.60595 28.8946 8.08074 30.7679 8.32124C31.3033 8.38997 31.6263 8.94946 31.4182 9.44748C30.6898 11.19 31.2296 13.2047 32.7317 14.3496C33.161 14.6768 33.161 15.3228 32.7317 15.6501C31.2296 16.795 30.6898 18.8096 31.4182 20.5521C31.6263 21.0502 31.3033 21.6097 30.7679 21.6784C28.8946 21.9189 27.4199 23.3937 27.1794 25.267C27.1106 25.8024 26.5511 26.1254 26.0531 25.9172C24.3106 25.1888 22.2959 25.7286 21.151 27.2307C20.8238 27.66 20.1778 27.66 19.8506 27.2307C18.7056 25.7286 16.691 25.1888 14.9485 25.9172C14.4504 26.1254 13.8909 25.8024 13.8222 25.267C13.5817 23.3937 12.1069 21.9189 10.2336 21.6784C9.69825 21.6097 9.37523 21.0502 9.58339 20.5521C10.3118 18.8096 9.77196 16.795 8.26988 15.6501C7.8406 15.3228 7.84059 14.6768 8.26988 14.3496C9.77196 13.2047 10.3118 11.1901 9.58339 9.44748C9.37523 8.94946 9.69825 8.38997 10.2336 8.32124C12.1069 8.08074 13.5817 6.60595 13.8222 4.73265C13.8909 4.19728 14.4504 3.87425 14.9485 4.08242ZM18.525 1.75856C19.5193 0.454177 21.4823 0.454177 22.4765 1.75856C23.1618 2.65753 24.3675 2.9806 25.4104 2.54468C26.9236 1.91216 28.6236 2.89368 28.8325 4.52043C28.9764 5.64157 29.859 6.52421 30.9802 6.66814C32.6069 6.87698 33.5884 8.57701 32.9559 10.0902C32.52 11.1331 32.8431 12.3388 33.742 13.0241C35.0464 14.0183 35.0464 15.9813 33.742 16.9756C32.8431 17.6608 32.52 18.8665 32.9559 19.9094C33.5884 21.4226 32.6069 23.1227 30.9802 23.3315C29.859 23.4754 28.9764 24.3581 28.8325 25.4792C28.7951 25.7699 28.7102 26.0399 28.5873 26.2839L32.6129 32.7248C32.7866 33.0027 32.7813 33.3567 32.5993 33.6292C32.4173 33.9018 32.0925 34.0424 31.7692 33.9885L27.3763 33.2564L25.1516 37.7059C24.9946 38.0199 24.6575 38.2018 24.3088 38.1608C23.9601 38.1198 23.6745 37.8646 23.5947 37.5227L21.5969 28.9664C20.8296 29.3424 19.9039 29.2992 19.173 28.8367L17.1448 37.5227C17.065 37.8646 16.7794 38.1198 16.4307 38.1608C16.082 38.2018 15.745 38.0199 15.588 37.7059L13.3632 33.2564L8.97033 33.9885C8.64707 34.0424 8.32224 33.9018 8.14027 33.6292C7.9583 33.3567 7.95298 33.0027 8.12667 32.7248L12.2933 26.0582C12.2977 26.0512 12.3021 26.0443 12.3067 26.0375C12.2411 25.8619 12.1943 25.6752 12.1691 25.4792C12.0252 24.3581 11.1425 23.4754 10.0214 23.3315C8.39466 23.1227 7.41314 21.4226 8.04565 19.9094C8.48158 18.8665 8.15851 17.6608 7.25954 16.9756C5.95515 15.9813 5.95515 14.0183 7.25954 13.0241C8.15851 12.3388 8.48158 11.1331 8.04565 10.0902C7.41314 8.57701 8.39466 6.87698 10.0214 6.66814C11.1425 6.52421 12.0252 5.64157 12.1691 4.52043C12.378 2.89368 14.078 1.91216 15.5912 2.54468C16.6341 2.9806 17.8398 2.65753 18.525 1.75856ZM13.4523 27.3485L10.5197 32.0406L13.6963 31.5112C14.0572 31.451 14.4151 31.6333 14.5787 31.9605L16.0466 34.8963L17.756 27.5753C17.1062 27.2146 16.31 27.1545 15.5912 27.4549C14.8585 27.7612 14.0821 27.6891 13.4523 27.3485ZM23.0171 27.719L24.693 34.8963L26.1609 31.9605C26.3245 31.6333 26.6824 31.451 27.0432 31.5112L30.2198 32.0406L27.3482 27.446C26.7584 27.7 26.0668 27.7293 25.4104 27.4549C24.6048 27.1182 23.702 27.2344 23.0171 27.719ZM20.502 7.44461C16.233 7.44461 12.7917 10.8588 12.7917 15.0476C12.7917 19.2461 16.2336 22.6597 20.502 22.6597C24.7704 22.6597 28.2123 19.2461 28.2123 15.0476C28.2123 10.8588 24.771 7.44461 20.502 7.44461ZM11.125 15.0476C11.125 9.91867 15.3323 5.77794 20.502 5.77794C25.6717 5.77794 29.879 9.91867 29.879 15.0476C29.879 20.185 25.6723 24.3264 20.502 24.3264C15.3317 24.3264 11.125 20.185 11.125 15.0476ZM20.0752 9.406C20.3872 9.1532 20.8351 9.15881 21.1406 9.41935L24.9197 12.642C25.1054 12.8003 25.2123 13.0321 25.2123 13.2761V18.3867C25.2123 18.847 24.8392 19.2201 24.379 19.2201H16.6231C16.1628 19.2201 15.7897 18.847 15.7897 18.3867V13.2761C15.7897 13.0248 15.9032 12.7869 16.0984 12.6286L20.0752 9.406ZM17.4564 13.6734V17.5534H23.5456V13.6606L20.5863 11.137L17.4564 13.6734Z" fill="white"></path></svg>