<?xml version="1.0" encoding="UTF-8"?> <svg xmlns="http://www.w3.org/2000/svg" width="33" height="32" viewBox="0 0 33 32" fill="none"><path d="M31.9748 14.2142C31.9748 14.2121 31.9748 14.2103 31.9745 14.208C31.9518 13.6145 31.5899 13.1376 31.1096 12.8108C30.6273 12.4825 29.9755 12.4708 29.4346 12.6478C28.6575 12.902 28.1051 13.5704 27.5624 14.1492C27.1076 14.6347 26.6525 15.1202 26.1977 15.6061C25.8869 15.9378 25.4289 16.1324 25.0394 16.3554C24.8583 16.4588 24.6774 16.5628 24.4966 16.6662C24.5266 16.7195 24.5548 16.7738 24.5806 16.829C24.6072 16.8841 24.6318 16.9402 24.654 16.9972C24.9078 17.6371 24.9204 18.3668 24.6566 19.0109C24.4037 19.6286 23.9497 20.1701 23.3443 20.4673C22.6685 20.7985 21.9532 20.769 21.219 20.776C19.7632 20.7896 18.3077 20.7745 16.8519 20.7632C16.5448 20.7606 16.3175 20.5138 16.3039 20.2147C16.2909 19.9201 16.5651 19.6641 16.8519 19.6662C17.5763 19.6717 18.3004 19.6788 19.0247 19.6824C19.7086 19.6858 20.3926 19.6858 21.0762 19.6803C21.4235 19.6775 21.7711 19.6746 22.1182 19.6673C22.1938 19.6654 22.2687 19.6626 22.3439 19.6545C22.3441 19.6542 22.3449 19.6542 22.3454 19.6542H22.3462C22.3501 19.6532 22.3553 19.6521 22.3619 19.6506C22.3885 19.6448 22.4151 19.6404 22.4415 19.6344C22.5028 19.6205 22.5636 19.6041 22.6233 19.585C22.6426 19.5787 22.7533 19.5372 22.7392 19.545C22.8626 19.4894 22.9785 19.4191 23.0899 19.3429C23.0902 19.3426 23.1009 19.3345 23.111 19.3264C23.1118 19.3264 23.1121 19.3256 23.1129 19.3249C23.1272 19.3123 23.1622 19.2828 23.1677 19.2781C23.2144 19.2361 23.2598 19.1924 23.3028 19.1465C23.4153 19.0268 23.5643 18.8098 23.6353 18.6309C23.7506 18.3394 23.7733 18.138 23.7482 17.8244C23.7472 17.8082 23.7461 17.7951 23.7454 17.7849C23.7438 17.7823 23.742 17.7739 23.7388 17.7564C23.7313 17.716 23.7224 17.6752 23.7125 17.6355C23.7054 17.6073 23.6979 17.5791 23.6895 17.5514C23.6775 17.5096 23.664 17.4683 23.6501 17.4271C23.6444 17.4106 23.6373 17.3926 23.6293 17.3741C23.6222 17.3576 23.6144 17.3404 23.6055 17.3226C23.5705 17.3022 23.5351 17.2821 23.4998 17.262C23.4813 17.2756 23.4242 17.2892 23.4696 17.255C23.4722 17.2529 23.475 17.251 23.4779 17.2492C23.4763 17.2484 23.4745 17.2474 23.4732 17.2466C23.4761 17.2466 23.4787 17.2466 23.4813 17.2469C23.4993 17.2348 23.5189 17.2247 23.5382 17.2142C23.2705 16.8859 22.9062 16.6464 22.485 16.5618C22.2987 16.5244 22.1134 16.5234 21.925 16.5234H18.6973C18.1391 16.5234 17.5766 16.4703 17.0523 16.269C16.1484 15.9216 15.2443 15.5742 14.3406 15.2268C13.2848 14.8209 12.1535 14.7042 11.0444 14.9507C10.205 15.1372 9.33034 15.5306 8.71712 16.1475C7.98312 16.8853 7.24958 17.6232 6.51585 18.3613L6.45114 18.4261C6.3799 18.4982 6.38382 18.6123 6.45114 18.6849C7.13998 19.4238 7.82862 20.1632 8.51727 20.9024C9.64873 22.1164 10.7796 23.3304 11.9108 24.5445C12.1748 24.8281 12.4394 25.112 12.7035 25.3956C12.7758 25.4727 12.8877 25.4562 12.9621 25.3956C13.5098 24.9469 14.0573 24.4982 14.605 24.0497C14.939 23.7765 15.2745 23.5381 15.7043 23.4325C15.9976 23.3604 16.2885 23.3704 16.5857 23.3795C18.0577 23.4255 19.5299 23.473 21.0021 23.5182C22.2945 23.5574 23.5796 23.2037 24.6531 22.4758C25.277 22.0524 25.8091 21.4942 26.3552 20.9781C26.9285 20.4362 27.5015 19.8942 28.0748 19.3525C28.3571 19.0856 28.5945 18.7711 28.8453 18.4749C29.7583 17.3954 30.6716 16.3165 31.5844 15.237C31.8273 14.9491 31.9651 14.6253 31.9763 14.2468C31.9766 14.2447 31.9766 14.2423 31.9766 14.2402V14.2355C31.9755 14.2269 31.9755 14.2204 31.9747 14.2141L31.9748 14.2142Z" fill="#FE6F3C"></path><path d="M12.4966 26.8837C12.3048 26.6695 12.1041 26.4624 11.9084 26.2522C11.7406 26.0722 11.5734 25.8922 11.4058 25.7125C10.6379 24.8888 9.8705 24.0645 9.10256 23.2404C8.24305 22.3178 7.38299 21.3953 6.52348 20.4723C6.36848 20.3059 6.21374 20.1395 6.05849 19.9734C5.73701 19.6281 5.43197 19.256 5.08781 18.9342C4.60482 18.4833 3.90866 18.5298 3.4301 18.9506C3.27693 19.0851 3.12846 19.2249 2.97738 19.362C2.51447 19.7822 2.05206 20.2019 1.58947 20.622C1.30635 20.879 1.10569 21.207 1.11743 21.6054C1.12735 21.9308 1.2693 22.2071 1.48535 22.4425C1.66801 22.641 1.85328 22.8374 2.03698 23.0349C2.84953 23.9067 3.66156 24.7783 4.47385 25.6504C5.41299 26.6586 6.3526 27.6671 7.29201 28.6752C7.80058 29.2211 8.30237 29.7744 8.81826 30.3134C9.11599 30.6245 9.54238 30.7559 9.96355 30.6652C10.2696 30.5994 10.487 30.392 10.709 30.1907C11.1847 29.7589 11.6604 29.3266 12.1364 28.8944C12.2368 28.8029 12.337 28.7118 12.4377 28.6204C12.4377 28.6204 12.4377 28.6201 12.438 28.6201C12.4516 28.6076 12.4651 28.5956 12.4784 28.5833C12.4985 28.565 12.5168 28.5451 12.533 28.5245L12.5332 28.5242C12.9547 28.0421 12.9228 27.3601 12.4967 26.8837L12.4966 26.8837Z" fill="#FE6F3C"></path><path d="M30.0601 1.22212C30.0055 1.02647 29.8505 0.901206 29.6313 0.875478C29.5947 0.871108 29.5581 0.86771 29.5212 0.863826C29.3131 0.841978 29.105 0.820373 28.8972 0.798525C28.6547 0.773279 28.4126 0.748275 28.1706 0.723032C28.0287 0.707981 27.8648 0.668656 27.7232 0.707496C27.5706 0.749735 27.4132 0.913106 27.291 1.0119C27.0592 1.20052 26.8273 1.38889 26.5952 1.57703C25.1202 2.77523 23.6455 3.97325 22.1705 5.1712C21.8351 5.44333 21.4997 5.71594 21.164 5.98828C19.6335 5.15735 17.69 5.30544 16.3023 6.36964C15.1362 7.26346 14.4572 8.70079 14.5377 10.1735C14.6235 11.7478 15.5476 13.2133 16.9553 13.9357C18.4034 14.6785 20.2014 14.5909 21.5476 13.6621C23.1451 12.5593 23.8792 10.5212 23.3301 8.66461C23.6241 8.43084 23.9267 8.20265 24.2044 7.95187C24.3742 7.79919 24.3485 7.56371 24.3582 7.35228C24.3623 7.26465 24.3659 7.17653 24.3703 7.0889C24.4498 7.10176 24.5289 7.11463 24.608 7.12774C24.7098 7.144 24.8117 7.16172 24.9138 7.17726C25.0743 7.20177 25.1793 7.15881 25.3008 7.06098C25.5048 6.89688 25.7075 6.73108 25.911 6.56625C26.0155 6.48129 26.0995 6.42085 26.1247 6.27326C26.1385 6.19072 26.1363 6.1043 26.1402 6.0208C26.146 5.89262 26.1521 5.76494 26.1579 5.63676C26.2374 5.64963 26.3165 5.66249 26.3958 5.6756C26.4977 5.69235 26.5995 5.70983 26.7014 5.72513C26.8619 5.74964 26.9672 5.70668 27.0884 5.60933C27.2924 5.44475 27.4949 5.27895 27.6979 5.11412C27.8024 5.02915 27.8863 4.96871 27.9115 4.8216C27.9254 4.73907 27.9234 4.6524 27.9271 4.56914C27.9329 4.44097 27.9389 4.31328 27.9448 4.18511C28.1041 4.21133 28.2629 4.23706 28.4218 4.26303C28.595 4.29119 28.7249 4.2793 28.8697 4.16278C28.9903 4.06592 29.1098 3.96809 29.2299 3.87051C29.4801 3.66732 29.8555 3.46754 29.8963 3.11943C29.9288 2.84245 29.954 2.56474 29.9829 2.2875C30.0115 2.01417 30.0396 1.74131 30.068 1.46819C30.0721 1.42935 30.0762 1.39027 30.0801 1.35167C30.0859 1.30579 30.0777 1.2621 30.06 1.22205L30.0601 1.22212ZM18.5329 11.6984C18.5258 11.7045 18.5185 11.7096 18.5115 11.7144C18.5074 11.7181 18.503 11.7219 18.4987 11.7253C18.1038 12.0285 17.5463 12.0108 17.1679 11.6882C16.4344 11.0627 16.9186 9.81244 17.8802 9.83867C18.3134 9.85056 18.6965 10.1292 18.8464 10.5351C18.9989 10.9471 18.8622 11.4161 18.5328 11.6984L18.5329 11.6984Z" fill="#FFD4C5"></path></svg> 