<svg xmlns="http://www.w3.org/2000/svg" width="32" height="32" viewBox="0 0 32 32" fill="none"><path fill-rule="evenodd" clip-rule="evenodd" d="M3.09757 13.9311C2.46849 13.9311 2.0957 13.4767 2.0957 12.9991C2.0957 12.7312 2.2122 12.4516 2.46849 12.2419L14.6074 2.04849C15.4811 1.31457 16.5528 1.31457 17.4149 2.04849L23.5426 7.1976V4.83274C23.5426 4.32016 23.8804 3.99397 24.3814 3.99397H25.6279C26.1404 3.99397 26.4666 4.32016 26.4666 4.83274V9.65567L29.5421 12.2419C29.7868 12.4516 29.9033 12.6846 29.9033 13.034C29.9033 13.5932 29.4606 13.9311 28.913 13.9311C28.5869 13.9311 28.3189 13.7563 28.0859 13.5583L26.4666 12.1953V23.3905C26.4666 25.0215 25.4997 25.9651 23.8455 25.9651H14.3018L14.4369 24.0895H19.372H23.4494C24.1833 24.0895 24.591 23.6701 24.591 22.9129V10.6226L16.4247 3.77263C16.1684 3.53964 15.8539 3.53964 15.5976 3.77263L7.32637 10.7041V15.3293L5.45078 15.3817V12.2768L3.93634 13.5583C3.6917 13.7563 3.42376 13.9311 3.09757 13.9311Z" fill="#FE6F3C"></path><path fill-rule="evenodd" clip-rule="evenodd" d="M10.1665 16.7159C11.6095 14.9924 14.2825 14.2897 16.4471 15.7956C17.595 16.5988 18.3165 17.9542 18.3657 19.3765C18.4723 22.6227 15.66 25.2247 11.3554 29.2071L11.2652 29.2908C10.642 29.8765 9.68273 29.8765 9.05959 29.2992L8.97759 29.2239L8.92807 29.178C4.65137 25.2131 1.8529 22.6186 1.96724 19.3849C2.01644 17.9542 2.73797 16.5988 3.88587 15.7956C6.05047 14.2813 8.72342 14.9924 10.1665 16.7159ZM10.1671 28.0618L10.249 27.9781C14.1519 24.3722 16.7264 21.9877 16.7264 19.5698C16.7264 17.8965 15.4966 16.6415 13.8567 16.6415C12.865 16.6415 11.8935 17.1525 11.3156 17.9271C11.0322 18.307 10.6234 18.616 10.1494 18.616C9.70105 18.616 9.31325 18.3262 9.04947 17.9637C8.47103 17.1686 7.48465 16.6415 6.4774 16.6415C4.83755 16.6415 3.60766 17.8965 3.60766 19.5698C3.60766 21.9877 6.18222 24.3722 10.0851 27.9781L10.1671 28.0618Z" fill="#FE6F3C"></path><path d="M16.4471 15.7956L16.5904 15.5908L16.5899 15.5904L16.4471 15.7956ZM10.1665 16.7159L9.9748 16.8764C10.0223 16.9332 10.0925 16.9659 10.1665 16.9659C10.2405 16.9659 10.3107 16.9332 10.3582 16.8764L10.1665 16.7159ZM18.3657 19.3765L18.6156 19.3683L18.6156 19.3679L18.3657 19.3765ZM11.3554 29.2071L11.1856 29.0236L11.1854 29.0239L11.3554 29.2071ZM11.2652 29.2908L11.0952 29.1075L11.094 29.1086L11.2652 29.2908ZM9.05959 29.2992L9.22949 29.1158L9.22869 29.115L9.05959 29.2992ZM8.97759 29.2239L8.80762 29.4072L8.80849 29.408L8.97759 29.2239ZM8.92807 29.178L8.7581 29.3613L8.7581 29.3613L8.92807 29.178ZM1.96724 19.3849L2.21709 19.3937L2.2171 19.3935L1.96724 19.3849ZM3.88587 15.7956L3.74256 15.5908L3.74254 15.5908L3.88587 15.7956ZM10.249 27.9781L10.0792 27.7943L10.0705 27.8031L10.249 27.9781ZM10.1671 28.0618L9.9885 28.2368C10.0355 28.2848 10.0999 28.3118 10.1671 28.3118C10.2342 28.3118 10.2986 28.2848 10.3456 28.2368L10.1671 28.0618ZM11.3156 17.9271L11.516 18.0766L11.3156 17.9271ZM9.04947 17.9637L8.84731 18.1107H8.84731L9.04947 17.9637ZM10.0851 27.9781L10.2638 27.8029L10.2547 27.7945L10.0851 27.9781ZM16.5899 15.5904C14.3023 13.9989 11.4872 14.7492 9.9748 16.5555L10.3582 16.8764C11.7319 15.2357 14.2627 14.5805 16.3043 16.0008L16.5899 15.5904ZM18.6156 19.3679C18.5637 17.8694 17.8046 16.4403 16.5904 15.5908L16.3038 16.0005C17.3854 16.7573 18.0693 18.039 18.1159 19.3851L18.6156 19.3679ZM11.5251 29.3907C13.6722 27.4042 15.4683 25.7435 16.7109 24.1707C17.9572 22.5932 18.6716 21.0742 18.6156 19.3683L18.1159 19.3847C18.1664 20.925 17.5279 22.3301 16.3186 23.8607C15.1055 25.3961 13.3431 27.0276 11.1856 29.0236L11.5251 29.3907ZM11.4352 29.4741L11.5254 29.3904L11.1854 29.0239L11.0952 29.1075L11.4352 29.4741ZM8.88969 29.4826C9.60888 30.1488 10.7172 30.1489 11.4364 29.473L11.094 29.1086C10.5669 29.604 9.75658 29.6041 9.22949 29.1158L8.88969 29.4826ZM8.80849 29.408L8.89049 29.4833L9.22869 29.115L9.14669 29.0397L8.80849 29.408ZM8.7581 29.3613L8.80763 29.4072L9.14756 29.0405L9.09803 28.9946L8.7581 29.3613ZM1.7174 19.376C1.65729 21.0758 2.36622 22.59 3.60464 24.1619C4.83934 25.7292 6.62496 27.3837 8.7581 29.3613L9.09803 28.9946C6.95448 27.0073 5.20251 25.3822 3.99739 23.8525C2.79598 22.3276 2.16285 20.9276 2.21709 19.3937L1.7174 19.376ZM3.74254 15.5908C2.52819 16.4405 1.7692 17.8697 1.71739 19.3763L2.2171 19.3935C2.26368 18.0387 2.94776 16.7571 4.02919 16.0005L3.74254 15.5908ZM10.3582 16.5555C8.84632 14.7498 6.03095 13.9898 3.74256 15.5908L4.02918 16.0005C6.06998 14.5727 8.60051 15.2351 9.9748 16.8764L10.3582 16.5555ZM10.0705 27.8031L9.9885 27.8868L10.3456 28.2368L10.4276 28.1531L10.0705 27.8031ZM16.4764 19.5698C16.4764 20.6882 15.8808 21.8312 14.7598 23.1678C13.6408 24.502 12.0351 25.9875 10.0794 27.7945L10.4187 28.1618C12.3658 26.3628 13.9988 24.8531 15.1429 23.4891C16.2848 22.1275 16.9764 20.8693 16.9764 19.5698H16.4764ZM13.8567 16.8915C15.3538 16.8915 16.4764 18.0298 16.4764 19.5698H16.9764C16.9764 17.7632 15.6394 16.3915 13.8567 16.3915V16.8915ZM11.516 18.0766C12.0484 17.3628 12.9468 16.8915 13.8567 16.8915V16.3915C12.7832 16.3915 11.7385 16.9421 11.1153 17.7776L11.516 18.0766ZM10.1494 18.866C10.7358 18.866 11.2099 18.487 11.516 18.0766L11.1153 17.7776C10.8546 18.127 10.511 18.366 10.1494 18.366V18.866ZM8.84731 18.1107C9.13568 18.5071 9.58934 18.866 10.1494 18.866V18.366C9.81277 18.366 9.49083 18.1453 9.25163 17.8166L8.84731 18.1107ZM6.4774 16.8915C7.40158 16.8915 8.31406 17.3778 8.84731 18.1107L9.25163 17.8166C8.62799 16.9594 7.56771 16.3915 6.4774 16.3915V16.8915ZM3.85766 19.5698C3.85766 18.0298 4.98036 16.8915 6.4774 16.8915V16.3915C4.69474 16.3915 3.35766 17.7632 3.35766 19.5698H3.85766ZM10.2547 27.7945C8.29898 25.9875 6.69332 24.502 5.57435 23.1678C4.45332 21.8312 3.85766 20.6882 3.85766 19.5698H3.35766C3.35766 20.8693 4.04929 22.1275 5.19125 23.4891C6.33526 24.8531 7.96831 26.3628 9.91541 28.1618L10.2547 27.7945ZM10.3456 27.8868L10.2636 27.8031L9.90651 28.1531L9.9885 28.2368L10.3456 27.8868Z" fill="#FE6F3C"></path></svg>