<?xml version="1.0" encoding="UTF-8"?> <svg xmlns="http://www.w3.org/2000/svg" width="32" height="32" viewBox="0 0 32 32" fill="none"><rect width="32" height="32" fill="white"></rect><path opacity="0.3" fill-rule="evenodd" clip-rule="evenodd" d="M8.35022 19.494C8.82356 19.1817 9.39059 19 10.0001 19H22.0001C22.5622 19 23.0883 19.1546 23.538 19.4237C23.8043 19.3292 24.1087 19.3477 24.3726 19.5L29.7131 22.5833C30.1914 22.8595 30.3553 23.4711 30.0791 23.9494L28.7261 26.2929C28.45 26.7712 27.8384 26.935 27.3601 26.6589L25.0001 25.2963V29C25.0001 29.5523 24.5524 30 24.0001 30H8.00007C7.44779 30 7.00007 29.5523 7.00007 29V25.1421L4.37297 26.6589C3.89467 26.935 3.28308 26.7712 3.00694 26.2929L1.65392 23.9494C1.37777 23.4711 1.54165 22.8595 2.01994 22.5833L7.36043 19.5C7.67729 19.3171 8.05265 19.3272 8.35022 19.494Z" fill="#FE6F3C"></path><path fill-rule="evenodd" clip-rule="evenodd" d="M13.3777 19C13.3482 19 13.3187 19.0026 13.2897 19.0079V19.0079C12.8396 19.0889 12.7288 19.6835 13.1194 19.9212L14.6667 20.8627L13.4259 25.1351C13.3698 25.3282 13.4349 25.5361 13.591 25.6628L15.685 27.3617C15.8686 27.5107 16.1314 27.5107 16.315 27.3617L18.409 25.6628C18.5651 25.5361 18.6302 25.3282 18.5741 25.1351L17.3333 20.8627L18.8806 19.9212C19.2712 19.6835 19.1604 19.0889 18.7103 19.0079V19.0079C18.6813 19.0026 18.6518 19 18.6223 19H13.3777Z" fill="#FE6F3C"></path><path fill-rule="evenodd" clip-rule="evenodd" d="M15.4901 2.12701C15.8031 1.95766 16.1969 1.95766 16.5099 2.12701C18.2817 3.08564 21.8923 4.84964 25.3116 7.51264C25.9218 7.98782 25.5733 8.92308 24.8 8.92308V8.92308V15.2687C24.8 16.2249 23.9245 17 22.8444 17L9.15554 17C8.07551 17 7.19998 16.2249 7.19998 15.2687L7.2 8.92308V8.92308C6.17923 8.92308 5.81275 8.07494 6.6459 7.48517C9.20529 5.67344 13.9524 2.95894 15.4901 2.12701ZM14.0444 9.92308C13.5044 9.92308 13.0667 10.3106 13.0667 10.7887V13.5374C13.0667 14.0154 13.5044 14.403 14.0444 14.403H17.9555C18.4956 14.403 18.9333 14.0154 18.9333 13.5374V10.7887C18.9333 10.3106 18.4956 9.92308 17.9555 9.92308H14.0444Z" fill="#FE6F3C"></path></svg> 