<svg xmlns="http://www.w3.org/2000/svg" width="24" height="26" viewBox="0 0 24 26" fill="none"><path fill-rule="evenodd" clip-rule="evenodd" d="M12 0C8.13401 0 5 3.13401 5 7V9H4C1.79086 9 0 10.7909 0 13V22C0 24.2091 1.79086 26 4 26H20C22.2091 26 24 24.2091 24 22V13C24 10.7909 22.2091 9 20 9H19V7C19 3.13401 15.866 0 12 0ZM17 9V7C17 4.23858 14.7614 2 12 2C9.23858 2 7 4.23858 7 7V9H17ZM2 13C2 11.8954 2.89543 11 4 11H20C21.1046 11 22 11.8954 22 13V22C22 23.1046 21.1046 24 20 24H4C2.89543 24 2 23.1046 2 22V13Z" fill="#FE6F3C"></path></svg>