<?xml version="1.0" encoding="UTF-8"?> <svg xmlns="http://www.w3.org/2000/svg" width="32" height="32" viewBox="0 0 32 32" fill="none"><rect width="32" height="32" fill="white"></rect><path opacity="0.3" d="M5.33341 26.6666H2.66675C2.66675 22.9847 5.65152 21.3333 9.33341 21.3333H22.6667C26.3486 21.3333 29.3334 22.9847 29.3334 26.6666H26.6667C26.6667 24.4575 24.8759 24 22.6667 24H9.33341C7.12428 24 5.33341 24.4575 5.33341 26.6666Z" fill="#FE6F3C"></path><rect x="1.33325" y="16" width="29.3333" height="8" rx="1" fill="#FE6F3C"></rect><path opacity="0.3" fill-rule="evenodd" clip-rule="evenodd" d="M4 7.33331C4 6.22874 4.89543 5.33331 6 5.33331H26C27.1046 5.33331 28 6.22874 28 7.33331V13.6666C28 14.2189 27.5523 14.6666 27 14.6666H25.3333V13C25.3333 12.4477 24.8856 12 24.3333 12H18.3333C17.781 12 17.3333 12.4477 17.3333 13V14.6666H14.6667V13C14.6667 12.4477 14.219 12 13.6667 12H7.66667C7.11438 12 6.66667 12.4477 6.66667 13V14.6666H5C4.44772 14.6666 4 14.2189 4 13.6666V7.33331Z" fill="#FE6F3C"></path></svg> 